HIERARCHY
ROOT Hips
{
	OFFSET 0.00000 0.00000 0.00000
	CHANNELS 6 Xposition Yposition Zposition Zrotation Yrotation Xrotation 
	JOINT LHipJoint
	{
		OFFSET 0 0 0
		CHANNELS 3 Zrotation Yrotation Xrotation
		JOINT LeftHip
		{
			OFFSET 1.75344 -1.53157 0.77399
			CHANNELS 3 Zrotation Yrotation Xrotation
			JOINT LeftKnee
			{
				OFFSET 2.25415 -6.19323 0.00000
				CHANNELS 3 Zrotation Yrotation Xrotation
				JOINT LeftAnkle
				{
					OFFSET 2.30342 -6.32861 0.00000
					CHANNELS 3 Zrotation Yrotation Xrotation
					JOINT LeftToe
					{
						OFFSET 0.10958 -0.30108 1.49206
						CHANNELS 3 Zrotation Yrotation Xrotation
						End Site
						{
							OFFSET 0.00000 -0.00000 0.77783
						}
					}
				}
			}
		}
	}
	JOINT RHipJoint
	{
		OFFSET 0 0 0
		CHANNELS 3 Zrotation Yrotation Xrotation
		JOINT RightHip
		{
			OFFSET -1.81912 -1.53156 0.77399
			CHANNELS 3 Zrotation Yrotation Xrotation
			JOINT RightKnee
			{
				OFFSET -2.22882 -6.12365 0.00000
				CHANNELS 3 Zrotation Yrotation Xrotation
				JOINT RightAnkle
				{
					OFFSET -2.21943 -6.09785 0.00000
					CHANNELS 3 Zrotation Yrotation Xrotation
					JOINT RightToe
					{
						OFFSET -0.18931 -0.52012 1.59379
						CHANNELS 3 Zrotation Yrotation Xrotation
						End Site
						{
							OFFSET -0.00000 -0.00000 0.84686
						}
					}
				}
			}
		}
	}
	JOINT lowerback
	{
		OFFSET 0 0 0
		CHANNELS 3 Zrotation Yrotation Xrotation
		JOINT Chest
		{
			OFFSET -0.00200 1.66634 -0.14248
			CHANNELS 3 Zrotation Yrotation Xrotation
			JOINT Chest2
			{
				OFFSET -0.00875 1.64542 0.09514
				CHANNELS 3 Zrotation Yrotation Xrotation
				JOINT lowerneck
				{
					OFFSET 0 0 0
					CHANNELS 3 Zrotation Yrotation Xrotation
					JOINT Neck
					{
						OFFSET 0.02257 1.59605 0.00839
						CHANNELS 3 Zrotation Yrotation Xrotation
						JOINT Head
						{
							OFFSET -0.10214 1.57530 -0.23335
							CHANNELS 3 Zrotation Yrotation Xrotation
							End Site
							{
								OFFSET -0.03588 1.60717 -0.08062
							}
						}
					}
				}
				JOINT LeftCollar
				{
					OFFSET 0 0 0
					CHANNELS 3 Zrotation Yrotation Xrotation
					JOINT LeftShoulder
					{
						OFFSET 2.54983 1.10186 0.40078
CHANNELS 3 Zrotation Xrotation Yrotation
						JOINT LeftElbow
						{
OFFSET 0 -4.288400 0.000000
CHANNELS 3 Zrotation Xrotation Yrotation
							JOINT LeftWrist
							{
OFFSET 0 -3.065520 -0.000000
CHANNELS 3 Zrotation Xrotation Yrotation
								JOINT lhand
								{
									OFFSET 0 0 0
CHANNELS 3 Zrotation Xrotation Yrotation
									JOINT LFingers
									{
OFFSET 0 -0.753040 0.000000
CHANNELS 3 Zrotation Xrotation Yrotation
										End Site
										{
OFFSET 0 -0.607120 0.000000
										}
									}
								}
								JOINT LThumb
								{
OFFSET 0 0.000000 0.000000
CHANNELS 3 Zrotation Xrotation Yrotation
									End Site
									{
OFFSET 0 -0.616390 0.616390
									}
								}
							}
						}
					}
				}
				JOINT RightCollar
				{
					OFFSET 0 0 0
					CHANNELS 3 Zrotation Yrotation Xrotation
					JOINT RightShoulder
					{
						OFFSET -2.60909 1.35448 0.21802
CHANNELS 3 Zrotation Xrotation Yrotation
						JOINT RightElbow
						{
OFFSET 0 -4.521720 -0.000000
CHANNELS 3 Zrotation Xrotation Yrotation
							JOINT RightWrist
							{
OFFSET 0 -2.891400 0.000000
CHANNELS 3 Zrotation Xrotation Yrotation
								JOINT rhand
								{
									OFFSET 0 0 0
CHANNELS 3 Zrotation Xrotation Yrotation
									JOINT RFingers
									{
OFFSET 0 -0.680540 0.000000
CHANNELS 3 Zrotation Xrotation Yrotation
										End Site
										{
OFFSET 0 -0.548670 0.000000
										}
									}
								}
								JOINT RThumb
								{
OFFSET 0 0.000000 0.000000
CHANNELS 3 Zrotation Xrotation Yrotation
									End Site
									{
OFFSET 0 -0.557050 0.557050
									}
								}
							}
						}
					}
				}
			}
		}
	}
}
MOTION
Frames: 12
Frame Time: 0.008333333333333333
8.711063 15.216041 -2.028695 -176.765815 -3.667243 -173.144422 0.000000 0.000000 0.000000 -11.829992 -17.836821 -39.555087 3.665949 11.687959 34.654506 0.021349 1.351363 1.864452 2.476542 -9.181076 -26.728549 0.000000 0.000000 0.000000 20.832386 11.680816 -36.396787 -3.724584 -11.765511 34.931520 0.158743 -9.011445 2.862359 -1.376006 7.020204 -19.908129 3.269314 1.453692 29.613242 0.799039 2.195520 3.103591 -1.754948 0.486321 -12.797043 -6.877497 -3.993835 -8.088011 5.332565 -4.920958 3.397360 2.736604 -2.378287 2.895831 0.000000 0.000000 0.000000 45.839017 28.967024 15.935590 86.360687 -59.942920 56.848980 26.323379 -55.335402 54.869237 0.000000 0.000000 0.000000 -7.125000 0.000000 0.000000 -9.023055 -27.231094 -12.251498 0.000000 0.000000 0.000000 -43.286315 29.247379 21.630366 -44.816460 -50.660351 -22.101758 -8.508739 -16.969331 44.760501 0.000000 0.000000 0.000000 7.125000 0.000000 0.000000 45.247753 70.280190 -29.230126
8.712852 14.967684 -2.123361 -176.731753 -3.893708 -173.426985 0.000000 0.000000 0.000000 -12.321925 -17.215080 -40.764586 4.444735 12.700763 38.304202 0.029177 -0.255101 -2.105363 3.153361 -10.928922 -32.051868 0.000000 0.000000 0.000000 21.409310 10.704092 -38.128184 -4.570917 -12.851413 38.867155 0.205852 -8.866670 -2.930585 -0.729477 4.815170 -13.523473 3.366768 1.338807 30.114331 0.763445 2.056096 2.970810 -1.737555 0.404501 -12.687985 -6.562416 -3.989585 -7.784992 5.203584 -4.943263 2.307742 2.633055 -2.395848 2.454209 0.000000 0.000000 0.000000 42.420133 30.736607 18.479247 83.560249 -59.830182 54.426649 26.344587 -55.200475 54.305924 0.000000 0.000000 0.000000 -7.125000 0.000000 0.000000 -8.814549 -26.721178 -11.930922 0.000000 0.000000 0.000000 -39.932445 30.213262 20.086079 -41.797511 -49.059390 -19.799394 -9.019703 -14.098312 45.497127 0.000000 0.000000 0.000000 7.125000 0.000000 0.000000 46.397727 70.932996 -30.696036
8.713843 14.733913 -2.203326 -176.602893 -4.041717 -173.668816 0.000000 0.000000 0.000000 -12.400077 -16.934524 -42.208250 5.293088 13.679224 42.020626 0.153336 -0.981480 -6.310906 2.645229 -9.878324 -28.770306 0.000000 0.000000 0.000000 21.870889 10.282771 -39.667388 -5.386867 -13.787108 42.430265 0.206420 -9.549667 -8.364968 -0.127719 1.764247 -4.867579 3.541417 1.229156 30.624643 0.763242 1.958999 2.884245 -1.761132 0.336885 -12.701266 -6.411737 -3.982922 -7.330344 5.190352 -4.962577 1.203780 2.604293 -2.414726 1.996753 0.000000 0.000000 0.000000 38.905564 32.369317 21.078197 80.386568 -59.626118 51.686270 26.330302 -55.109108 53.985829 0.000000 0.000000 0.000000 -7.125000 0.000000 0.000000 -8.705809 -26.424677 -11.761643 0.000000 0.000000 0.000000 -36.637956 31.041397 18.467796 -38.886984 -47.357829 -17.627784 -9.371021 -11.111209 45.989541 0.000000 0.000000 0.000000 7.125000 0.000000 0.000000 47.193614 71.369912 -31.703667
8.714160 14.507692 -2.271482 -176.356508 -4.072583 -173.822180 0.000000 0.000000 0.000000 -12.011718 -16.965172 -43.983766 6.201732 14.611806 45.769346 0.364140 -1.843400 -10.882164 1.481444 -7.652857 -21.684395 0.000000 0.000000 0.000000 22.287688 10.382105 -40.964694 -6.157820 -14.573532 45.600900 0.116169 -10.169549 -12.387404 -0.004966 -0.067109 0.184160 3.791005 1.142455 31.104392 0.805882 1.930913 2.885813 -1.842397 0.295914 -12.898995 -6.416020 -3.990616 -6.742778 5.296256 -5.001293 0.125004 2.647920 -2.445079 1.540918 0.000000 0.000000 0.000000 35.375220 33.847432 23.653783 76.802344 -59.323952 48.597099 26.384289 -55.200341 53.945030 0.000000 0.000000 0.000000 -7.125000 0.000000 0.000000 -8.671409 -26.401144 -11.713648 0.000000 0.000000 0.000000 -33.440443 31.747763 16.834575 -36.106432 -45.572043 -15.603184 -9.638825 -8.050103 46.214991 0.000000 0.000000 0.000000 7.125000 0.000000 0.000000 47.481728 71.604790 -32.145424
8.714606 14.294776 -2.326977 -175.944938 -3.906321 -173.734518 0.000000 0.000000 0.000000 -11.201209 -17.108107 -46.012713 7.146113 15.441037 49.402374 0.499423 -1.619414 -12.856953 2.253842 -9.330931 -26.868608 0.000000 0.000000 0.000000 22.678456 11.117878 -42.228449 -6.915212 -15.251656 48.537900 0.066989 -11.234206 -14.940991 -0.033643 1.049774 -2.886637 4.124792 1.119128 31.512989 0.861377 2.034846 2.808773 -2.007025 0.313818 -13.143708 -6.413939 -4.016692 -6.333958 5.413858 -5.060577 -0.793152 2.694055 -2.485716 1.177638 0.000000 0.000000 0.000000 32.035639 35.012084 25.757021 73.480742 -58.931995 45.746128 26.691257 -56.141082 52.474524 0.000000 0.000000 0.000000 -7.125000 0.000000 0.000000 -8.042540 -25.128771 -10.771348 0.000000 0.000000 0.000000 -30.339856 32.252567 15.167868 -33.536056 -43.716713 -13.798594 -9.927518 -4.994461 46.265360 0.000000 0.000000 0.000000 7.125000 0.000000 0.000000 47.338050 71.737473 -32.161173
8.718743 14.142156 -2.367589 -175.317730 -3.624035 -173.442935 0.000000 0.000000 0.000000 -9.933228 -17.177678 -48.505227 8.153369 16.208447 53.077006 0.617596 -1.969158 -14.275886 2.150908 -9.159779 -26.306558 0.000000 0.000000 0.000000 23.144463 12.285223 -43.621003 -7.680748 -15.865791 51.381847 0.015464 -11.996792 -16.828205 -0.055639 1.510188 -4.153974 4.583158 1.155804 31.834921 0.970899 2.274490 2.703607 -2.233883 0.387800 -13.369142 -6.343827 -4.013469 -6.281821 5.444853 -5.072573 -1.525261 2.695421 -2.502562 0.931143 0.000000 0.000000 0.000000 28.898104 36.072666 27.397630 70.152167 -58.435383 42.903770 27.237187 -57.234176 51.520263 0.000000 0.000000 0.000000 -7.125000 0.000000 0.000000 -7.496176 -24.396610 -9.984683 0.000000 0.000000 0.000000 -27.251866 32.645391 13.427973 -31.283103 -41.937618 -12.269648 -10.227227 -2.168757 46.296451 0.000000 0.000000 0.000000 7.125000 0.000000 0.000000 47.137532 71.862421 -32.125298
8.728803 14.000521 -2.410660 -174.906072 -3.155413 -172.505741 0.000000 0.000000 0.000000 -8.622125 -17.246610 -51.719563 9.177463 16.903226 56.676711 0.719511 -2.262296 -15.403846 1.960039 -8.782349 -25.116855 0.000000 0.000000 0.000000 23.044586 14.057850 -45.879263 -8.522596 -16.474728 54.399748 -0.051224 -12.440075 -18.320063 -0.044898 1.119897 -3.081008 4.582847 1.360231 31.746648 1.063186 2.588827 2.523948 -2.261628 0.536952 -13.524854 -6.272696 -3.985857 -6.631132 5.460185 -5.043160 -2.179162 2.686573 -2.499553 0.777325 0.000000 0.000000 0.000000 25.745481 36.856316 28.891783 66.746411 -57.830135 40.011328 27.443870 -58.020510 50.986470 0.000000 0.000000 0.000000 -7.125000 0.000000 0.000000 -7.233665 -23.957315 -9.602191 0.000000 0.000000 0.000000 -24.270487 32.766070 11.733925 -29.260557 -40.229587 -10.936699 -10.624111 0.434513 46.392824 0.000000 0.000000 0.000000 7.125000 0.000000 0.000000 47.010920 72.062979 -32.216063
8.744555 13.848466 -2.462542 -174.870699 -2.486327 -170.861805 0.000000 0.000000 0.000000 -7.469853 -17.321598 -55.631171 10.200610 17.516589 60.150946 0.807632 -2.273973 -16.358966 1.973302 -8.808801 -25.199956 0.000000 0.000000 0.000000 22.154708 16.424065 -49.164602 -9.466365 -17.093683 57.682539 -0.128847 -12.622701 -19.499290 -0.000029 0.009398 -0.025860 3.944057 1.755296 31.223598 1.103020 2.941518 2.268092 -2.017496 0.756482 -13.614124 -6.218589 -3.930535 -7.338095 5.475271 -4.971861 -2.832566 2.676881 -2.478191 0.683843 0.000000 0.000000 0.000000 22.577060 37.226830 30.335819 63.081840 -57.058041 36.920925 27.054629 -58.228279 50.853570 0.000000 0.000000 0.000000 -7.125000 0.000000 0.000000 -7.352390 -23.722999 -9.746673 0.000000 0.000000 0.000000 -21.445523 32.545846 10.147959 -27.432040 -38.581984 -9.769693 -11.107969 2.769263 46.624895 0.000000 0.000000 0.000000 7.125000 0.000000 0.000000 47.151501 72.378292 -32.621243
8.755476 13.659768 -2.520935 -175.136659 -1.770464 -169.566179 0.000000 0.000000 0.000000 -6.868100 -17.229478 -59.027361 11.214898 18.028748 63.465119 0.904210 -2.128809 -17.370728 2.170989 -9.210341 -26.457917 0.000000 0.000000 0.000000 20.776322 18.576260 -52.269276 -10.490533 -17.665794 61.101164 -0.137613 -13.174308 -20.308462 -0.000326 0.108724 -0.298655 3.127084 2.147475 31.190465 1.025609 3.201460 2.087937 -1.771148 0.926013 -13.842047 -6.121194 -3.810853 -7.788221 5.399420 -4.847276 -3.815355 2.638399 -2.443943 0.431775 0.000000 0.000000 0.000000 20.075328 36.666234 31.576842 57.884032 -55.674827 32.596401 25.839980 -57.117637 51.147166 0.000000 0.000000 0.000000 -7.125000 0.000000 0.000000 -7.954589 -23.660892 -10.551536 0.000000 0.000000 0.000000 -18.867866 31.988519 8.802187 -25.706272 -36.903242 -8.716105 -11.295998 4.486784 47.296481 0.000000 0.000000 0.000000 7.125000 0.000000 0.000000 48.741095 72.852191 -34.312689
8.766229 13.487074 -2.583844 -175.397601 -1.377672 -169.082970 0.000000 0.000000 0.000000 -6.641386 -17.139588 -61.097587 12.133112 18.435186 66.397952 1.031009 -2.225754 -18.556125 2.283866 -9.433060 -27.160289 0.000000 0.000000 0.000000 19.776879 19.959363 -54.278385 -11.479796 -18.147630 64.313200 -0.190820 -13.672163 -21.487264 -0.003076 0.318566 -0.875228 2.567386 2.384866 32.060916 0.951098 3.300146 2.044561 -1.611284 0.974880 -14.293845 -5.972668 -3.656879 -8.012800 5.339461 -4.707636 -5.005402 2.604433 -2.413263 0.073653 0.000000 0.000000 0.000000 17.958616 35.941928 32.338666 52.981527 -54.055247 28.591827 24.882605 -55.606194 51.324113 0.000000 0.000000 0.000000 -7.125000 0.000000 0.000000 -8.409972 -23.568061 -11.157728 0.000000 0.000000 0.000000 -16.451131 31.161705 7.484629 -24.162504 -35.318121 -7.807660 -11.636028 6.715789 47.513961 0.000000 0.000000 0.000000 7.125000 0.000000 0.000000 49.015765 73.106788 -34.767387
8.775605 13.331777 -2.645429 -175.583853 -1.179964 -169.033229 0.000000 0.000000 0.000000 -6.535946 -17.074119 -62.389686 12.960079 18.761535 68.995594 1.180323 -2.499590 -19.841779 2.317021 -9.497245 -27.363605 0.000000 0.000000 0.000000 19.152967 20.849024 -55.595222 -12.390868 -18.543271 67.214436 -0.276856 -14.087095 -22.838370 -0.003697 0.352802 -0.969364 2.257624 2.525350 33.357329 0.892065 3.329945 2.081289 -1.547053 0.960838 -14.815898 -5.869562 -3.493582 -8.194725 5.362703 -4.560348 -6.176042 2.609380 -2.381727 -0.282453 0.000000 0.000000 0.000000 16.174951 35.187405 32.534118 48.487458 -52.313723 24.985909 24.106322 -53.780049 51.492133 0.000000 0.000000 0.000000 -7.125000 0.000000 0.000000 -8.785132 -23.520403 -11.660211 0.000000 0.000000 0.000000 -14.147887 30.255790 6.360986 -22.822349 -33.885064 -7.042889 -11.949164 8.994457 47.812872 0.000000 0.000000 0.000000 7.125000 0.000000 0.000000 49.588796 73.392446 -35.502582
8.783203 13.195941 -2.701996 -175.654311 -1.090954 -169.211654 0.000000 0.000000 0.000000 -6.423818 -17.009226 -63.189528 13.690808 19.016809 71.257199 1.346820 -2.923915 -21.173309 2.272993 -9.412882 -27.095739 0.000000 0.000000 0.000000 18.906955 21.403661 -56.421405 -13.192540 -18.849741 69.721632 -0.387032 -14.407198 -24.236777 -0.000191 0.085856 -0.235987 2.183678 2.609540 34.810711 0.856934 3.348520 2.170411 -1.579448 0.919260 -15.317799 -5.867920 -3.336081 -8.421122 5.504328 -4.412066 -7.210240 2.672459 -2.348471 -0.581848 0.000000 0.000000 0.000000 14.697885 34.459498 32.106505 44.485557 -50.505073 21.843650 23.494726 -51.663378 51.693501 0.000000 0.000000 0.000000 -7.125000 0.000000 0.000000 -9.100812 -23.550633 -12.089100 0.000000 0.000000 0.000000 -11.952848 29.360729 5.537028 -21.728121 -32.667938 -6.438654 -12.093789 11.092275 48.439631 0.000000 0.000000 0.000000 7.125000 0.000000 0.000000 51.251496 73.802010 -37.235133
